<?xml version="1.0" standalone="no"?>
<!DOCTYPE svg PUBLIC "-//W3C//DTD SVG 20010904//EN"
 "http://www.w3.org/TR/2001/REC-SVG-20010904/DTD/svg10.dtd">
<svg version="1.0" xmlns="http://www.w3.org/2000/svg"
 width="156.000000pt" height="156.000000pt" viewBox="0 0 156.000000 156.000000"
 preserveAspectRatio="xMidYMid meet">
<metadata>
Created by potrace 1.14, written by Peter Selinger 2001-2017
</metadata>
<g transform="translate(0.000000,156.000000) scale(0.100000,-0.100000)"
fill="#000000" stroke="none">
<path d="M990 1545 c0 -8 -4 -15 -10 -15 -5 0 -10 -5 -10 -11 0 -5 4 -7 10 -4
6 3 7 -1 4 -9 -6 -16 10 -23 19 -8 2 4 3 2 1 -4 -1 -6 2 -17 7 -25 6 -11 11
-11 21 -1 17 17 48 15 48 -3 0 -8 10 -24 23 -35 12 -12 15 -19 7 -15 -15 5
-18 -2 -22 -52 -1 -9 -5 -10 -15 -2 -15 13 -18 33 -3 24 16 -10 11 1 -7 16
-10 8 -14 9 -10 2 4 -6 3 -14 -2 -18 -7 -4 -7 -15 0 -32 7 -18 6 -30 -1 -37
-8 -8 -9 -6 -4 8 5 13 4 17 -4 12 -7 -4 -12 -1 -12 8 0 8 -9 20 -20 26 -11 6
-20 15 -20 21 0 6 4 7 10 4 6 -3 7 1 4 10 -5 11 3 19 27 27 19 7 37 11 41 10
4 -1 5 5 2 13 -4 8 -10 15 -16 15 -5 0 -7 -4 -4 -9 4 -5 0 -11 -6 -14 -17 -5
-59 14 -52 24 3 5 1 9 -4 9 -18 0 -21 -29 -4 -39 10 -6 12 -11 5 -11 -9 0 -13
-16 -13 -48 0 -57 -24 -145 -44 -161 -8 -7 -39 -15 -68 -18 -42 -4 -63 -1 -96
15 -23 11 -40 16 -36 11 3 -5 1 -9 -5 -9 -5 0 -12 6 -15 13 -4 6 -4 2 -2 -11
2 -12 -2 -29 -11 -37 -8 -8 -11 -15 -6 -15 5 0 13 4 19 10 6 6 9 0 9 -15 0
-12 -3 -21 -8 -18 -4 2 -10 -3 -13 -11 -3 -9 -10 -16 -15 -16 -4 0 -6 6 -3 14
3 8 -4 16 -20 20 -14 3 -26 11 -26 16 0 19 -37 10 -64 -15 -32 -30 -26 -29
-64 -9 -18 8 -32 22 -32 31 0 8 -15 36 -33 62 -19 25 -37 54 -40 64 -4 9 -12
17 -18 17 -7 0 -20 7 -29 15 -10 9 -46 20 -80 27 -55 9 -65 9 -75 -6 -7 -9
-24 -16 -38 -16 -45 0 -93 -40 -104 -87 l-10 -42 68 1 c46 1 81 -4 107 -16 34
-16 40 -22 38 -47 -1 -16 2 -29 8 -29 5 0 2 -6 -9 -13 -10 -8 -15 -19 -11 -26
5 -7 0 -19 -10 -27 -18 -15 -18 -15 -1 -10 10 3 23 6 28 6 5 0 9 6 9 13 0 35
75 63 86 32 4 -8 12 -15 19 -15 8 0 11 -8 8 -20 -4 -14 0 -20 12 -20 11 0 15
5 11 15 -7 19 -1 19 31 -2 19 -13 28 -14 31 -5 5 15 49 16 92 0 26 -9 35 -9
38 1 7 20 32 -8 32 -35 0 -17 -6 -24 -19 -24 -30 0 -51 11 -51 25 0 8 -5 17
-12 21 -8 5 -9 0 -6 -14 5 -18 2 -22 -19 -22 -23 0 -24 -2 -12 -17 11 -13 8
-13 -13 2 -15 11 -28 26 -28 33 0 13 -19 16 -44 6 -11 -4 -14 -13 -10 -29 5
-20 3 -23 -14 -18 -11 2 -23 0 -26 -6 -7 -11 6 -15 33 -12 7 2 10 -2 6 -8 -3
-6 -18 -11 -33 -11 l-26 0 23 -17 c18 -12 28 -14 41 -5 14 9 20 8 24 -4 9 -22
8 -23 -14 -17 -22 6 -26 -7 -8 -25 9 -9 8 -12 -5 -12 -9 0 -17 5 -17 10 0 6
-7 10 -15 10 -8 0 -12 6 -9 13 2 7 -4 21 -15 31 -19 18 -19 18 -1 52 23 40 12
91 -16 80 -9 -3 -22 -6 -30 -6 -8 0 -14 -5 -14 -11 0 -6 7 -9 15 -5 9 3 15 0
15 -9 0 -8 5 -15 10 -15 6 0 10 -5 10 -10 0 -6 -12 -9 -27 -8 -23 2 -27 -1
-25 -17 l4 -20 -16 20 c-15 19 -15 18 -16 -17 0 -28 -5 -38 -20 -43 -26 -8
-26 -25 0 -18 11 3 20 0 20 -6 0 -6 -7 -11 -15 -11 -8 0 -15 -7 -15 -16 0 -14
-2 -14 -16 1 -12 11 -20 13 -29 5 -10 -8 -20 -5 -39 15 -28 28 -49 33 -40 10
13 -32 -17 -13 -30 20 -8 19 -17 35 -20 35 -10 0 -2 -65 11 -89 16 -31 17 -52
2 -48 -6 1 -16 -6 -22 -16 -10 -14 -9 -20 3 -27 13 -8 12 -10 -3 -10 -10 0
-15 -4 -12 -10 3 -6 -1 -7 -9 -4 -9 3 -16 1 -16 -5 0 -6 5 -11 12 -11 6 0 8
-3 5 -7 -4 -3 -16 2 -27 12 -20 18 -20 18 -20 -81 0 -86 2 -101 19 -111 26
-17 34 -53 11 -53 -10 0 -21 -7 -24 -16 -8 -22 -8 -26 4 -19 6 3 10 1 10 -5 0
-6 6 -8 13 -4 6 4 2 -4 -11 -18 -22 -24 -23 -33 -21 -126 1 -56 6 -99 10 -97
4 3 12 -2 19 -10 11 -13 9 -20 -9 -38 -17 -19 -21 -36 -21 -90 l0 -67 533 0
533 0 11 38 10 37 2 -37 c1 -35 3 -38 30 -38 16 0 57 7 91 16 56 14 63 14 79
0 14 -13 43 -16 143 -16 l125 0 0 85 c-1 50 -5 85 -11 85 -6 0 -5 5 2 12 9 9
12 177 12 695 l0 683 -285 0 c-247 0 -285 -2 -285 -15z m60 -49 c0 -2 -7 -6
-15 -10 -8 -3 -15 -1 -15 4 0 6 7 10 15 10 8 0 15 -2 15 -4z m61 -43 c13 -16
12 -17 -3 -4 -10 7 -18 15 -18 17 0 8 8 3 21 -13z m9 -86 c0 -5 -4 -5 -10 -2
-5 3 -10 14 -10 23 0 15 2 15 10 2 5 -8 10 -19 10 -23z m39 -21 c-3 -3 -11 5
-18 17 -13 21 -12 21 5 5 10 -10 16 -20 13 -22z m-65 -56 c-5 -5 -10 3 -11 18
-1 22 0 24 9 8 6 -10 6 -22 2 -26z m-54 0 c7 -14 7 -20 0 -20 -5 0 -10 6 -10
14 0 8 -6 17 -12 19 -10 4 -10 6 -1 6 7 1 17 -8 23 -19z m30 0 c0 -5 -2 -10
-4 -10 -3 0 -8 5 -11 10 -3 6 -1 10 4 10 6 0 11 -4 11 -10z m27 -42 c-3 -8 -6
-5 -6 6 -1 11 2 17 5 13 3 -3 4 -12 1 -19z m-34 -5 c-4 -9 -2 -14 3 -10 6 3
11 -8 12 -24 3 -36 -24 -92 -40 -83 -7 4 -8 3 -4 -4 8 -14 -23 -52 -43 -52 -8
0 -34 9 -57 20 l-42 21 30 29 c31 31 50 41 28 15 -9 -10 -9 -15 -1 -15 6 0 12
6 12 13 1 6 2 17 4 22 1 6 3 15 3 22 2 15 30 43 43 43 6 0 7 -4 4 -10 -4 -6 1
-7 12 -3 10 4 22 12 26 20 11 18 18 16 10 -4z m22 -173 c-3 -6 1 -13 9 -16 9
-3 13 -10 10 -15 -3 -5 -9 -7 -14 -4 -5 3 -11 1 -15 -4 -3 -6 3 -8 15 -6 11 2
20 -1 20 -8 0 -23 -12 -57 -19 -53 -3 2 -7 -15 -8 -37 -1 -37 0 -40 12 -23 8
10 11 25 8 34 -4 8 -2 13 3 10 5 -4 10 10 12 29 1 19 7 42 13 52 9 14 10 14 5
-2 -5 -14 -2 -17 12 -12 11 3 29 -3 43 -13 13 -11 29 -17 35 -15 6 2 19 -8 28
-22 16 -24 16 -27 0 -55 -10 -16 -21 -27 -25 -24 -12 7 -22 -17 -11 -28 6 -6
20 6 40 36 28 41 29 47 16 61 -9 8 -11 15 -5 15 21 0 38 -47 52 -140 7 -52 13
-124 14 -160 l0 -65 -37 -18 c-20 -10 -53 -21 -72 -24 l-35 -5 4 113 c3 65 1
103 -3 89 -8 -22 -9 -20 -16 22 -8 50 -26 75 -26 36 0 -13 7 -50 15 -81 8 -32
15 -90 15 -129 0 -58 3 -69 15 -64 11 4 15 -2 15 -22 0 -33 -27 -196 -37 -226
-8 -25 -8 -22 -48 168 -13 66 -29 124 -35 130 -18 18 -12 -33 20 -164 17 -68
28 -130 25 -137 -2 -8 0 -11 5 -8 12 7 13 -15 2 -33 -11 -17 -66 -21 -67 -4 0
6 -4 12 -10 11 -5 0 -9 -6 -7 -13 1 -8 -7 -16 -18 -19 -26 -7 -34 12 -27 59 4
20 2 32 -4 29 -5 -4 -9 13 -9 37 0 24 -3 54 -7 67 -4 15 -2 22 4 18 6 -4 8 3
5 18 -2 14 -9 22 -14 19 -6 -4 -7 -30 -3 -66 5 -45 4 -59 -4 -53 -8 4 -11 36
-9 95 3 76 5 85 15 67 12 -21 12 -20 14 13 1 19 3 47 4 63 1 15 -2 27 -6 27
-5 0 -9 -10 -9 -22 0 -12 -3 -19 -6 -15 -10 10 -4 212 6 215 6 2 10 14 10 26
0 12 7 32 16 44 8 12 13 28 11 35 -3 7 -6 5 -6 -5 -1 -10 -5 -18 -10 -18 -5 0
-7 10 -4 23 4 15 2 19 -5 12 -6 -5 -12 -26 -15 -45 l-4 -35 -1 36 c-1 23 5 43
18 57 12 12 16 22 10 22 -5 0 -10 5 -10 10 0 7 7 7 20 0 11 -6 17 -16 14 -22
-4 -7 -3 -8 4 -4 14 8 7 -36 -15 -98 -10 -29 -10 -43 -2 -50 6 -7 9 -7 7 -1
-1 6 4 26 12 45 14 34 14 34 22 10 7 -23 7 -23 4 4 -2 16 0 42 4 57 7 24 4 33
-21 58 l-29 30 32 45 c17 25 33 46 36 46 2 0 0 -5 -3 -10z m-395 -32 c0 -13
-23 -5 -28 10 -2 7 2 10 12 6 9 -3 16 -11 16 -16z m42 0 c-7 -7 -12 -8 -12 -2
0 14 12 26 19 19 2 -3 -1 -11 -7 -17z m258 -68 c0 -18 -10 -24 -35 -21 -5 1
-2 -5 7 -12 10 -8 15 -17 11 -20 -13 -13 -61 -7 -74 10 -13 15 -12 15 7 5 16
-9 21 -8 21 4 0 7 -7 14 -16 15 -10 0 -12 2 -3 6 6 2 12 9 12 14 0 6 -5 7 -12
3 -6 -4 -8 -3 -5 2 3 6 24 11 46 12 35 2 41 0 41 -18z m-296 -6 c9 -8 16 -22
16 -29 0 -15 -27 -45 -40 -45 -5 0 -12 5 -16 11 -4 8 -9 7 -16 -2 -7 -10 -8
-6 -4 13 4 19 2 27 -6 24 -7 -1 -10 -1 -5 1 4 3 7 13 7 24 0 24 41 26 64 3z
m106 -24 c-8 -5 -19 -10 -25 -10 -5 0 -3 5 5 10 8 5 20 10 25 10 6 0 3 -5 -5
-10z m-26 -35 c4 -10 -1 -15 -14 -15 -13 0 -18 5 -14 15 4 8 10 15 14 15 4 0
10 -7 14 -15z m-177 -37 c7 18 33 14 33 -5 0 -14 2 -15 9 -4 12 18 31 5 31
-22 0 -12 12 -31 28 -44 26 -22 26 -22 5 -23 -13 0 -23 5 -23 11 0 7 -11 9
-26 6 -22 -4 -25 -2 -20 17 5 20 2 22 -23 18 -24 -3 -31 1 -44 26 -14 30 -14
31 5 19 16 -9 22 -9 25 1z m-264 -14 c-4 -11 -73 -16 -73 -5 0 15 12 19 45 18
18 -1 31 -7 28 -13z m71 0 c5 -14 4 -15 -9 -4 -17 14 -19 20 -6 20 5 0 12 -7
15 -16z m43 -36 c-3 -8 -6 -5 -6 6 -1 11 2 17 5 13 3 -3 4 -12 1 -19z m413
-75 c-7 -32 -19 -77 -26 -100 -7 -23 -18 -80 -24 -127 -6 -47 -13 -92 -16 -99
-2 -7 -28 -25 -57 -39 l-53 -26 -2 32 c-2 17 4 63 12 101 9 39 18 92 21 119 6
44 8 48 31 43 19 -3 24 0 24 16 0 16 -3 18 -12 9 -18 -18 -31 -15 -24 6 5 14
4 14 -9 -2 -18 -24 -19 -14 -3 31 9 25 17 33 33 31 18 -3 20 -10 20 -88 0 -67
-5 -97 -24 -143 -17 -42 -26 -55 -33 -45 -6 9 -7 6 -3 -10 4 -12 0 -35 -9 -52
-8 -17 -10 -30 -5 -30 5 0 9 5 9 11 0 5 5 7 10 4 10 -6 14 7 11 34 -2 8 2 10
10 5 7 -4 10 -3 6 4 -4 5 -2 21 3 34 10 22 10 22 6 1 -2 -12 3 -30 11 -40 14
-17 14 -17 9 0 -3 11 -2 16 4 12 6 -3 10 -2 10 4 0 5 -4 11 -9 13 -4 2 -12 14
-16 27 -5 16 -4 21 4 16 8 -5 10 2 6 22 l-6 28 16 -25 c12 -18 14 -19 10 -5
-8 23 -9 31 -6 65 l3 25 8 -25 c7 -20 8 -16 8 20 -1 54 7 114 21 155 10 27 10
26 6 -15 l-4 -45 14 40 c7 22 14 49 14 59 1 11 4 17 7 13 3 -3 0 -32 -6 -64z
m-526 19 c3 -5 -1 -9 -9 -9 -8 0 -12 4 -9 9 3 4 7 8 9 8 2 0 6 -4 9 -8z m-87
-12 c22 0 26 -15 5 -15 -4 0 -11 -3 -17 -6 -5 -3 -19 3 -29 14 -17 18 -17 20
-2 14 10 -4 29 -7 43 -7z m243 -6 c0 -14 3 -14 15 -4 13 10 15 9 15 -9 0 -14
6 -21 20 -21 11 0 20 -5 20 -11 0 -5 -3 -8 -8 -5 -4 2 -26 1 -50 -4 -41 -7
-71 4 -35 13 14 4 13 5 -4 6 -12 0 -25 5 -28 11 -4 6 4 9 17 7 17 -1 22 3 20
16 -2 9 2 17 8 17 5 0 10 -7 10 -16z m56 -11 c-10 -10 -19 5 -10 18 6 11 8 11
12 0 2 -7 1 -15 -2 -18z m114 12 c0 -9 -6 -12 -16 -8 -13 5 -13 7 -2 14 17 11
18 11 18 -6z m21 -52 c-8 -14 -10 -9 -10 27 1 42 1 43 10 18 7 -18 7 -33 0
-45z m120 34 c-10 -9 -11 -8 -5 6 3 10 9 15 12 12 3 -3 0 -11 -7 -18z m-411 3
c0 -5 -2 -10 -4 -10 -3 0 -8 5 -11 10 -3 6 -1 10 4 10 6 0 11 -4 11 -10z
m-305 -194 c12 12 17 14 14 5 -9 -26 -38 -38 -49 -21 -15 23 -12 36 3 16 13
-18 14 -18 32 0z m1230 -55 c-5 -70 -47 -247 -81 -337 l-24 -65 22 -9 c25 -10
25 -10 -12 -16 -29 -5 -66 17 -57 34 4 5 15 8 25 5 13 -3 19 1 19 12 0 9 -6
14 -14 11 -17 -7 -17 24 0 89 8 28 12 68 10 90 -3 29 -1 36 6 26 7 -11 8 -3 4
25 -3 22 0 66 6 96 12 55 30 75 54 61 7 -3 9 -3 5 2 -7 7 3 15 39 34 1 1 0
-25 -2 -58z m-785 38 c0 -8 5 -7 15 1 19 16 19 1 0 -24 -9 -12 -12 -28 -9 -40
6 -19 5 -19 -10 -7 -12 10 -14 17 -6 25 14 14 13 39 -2 34 -7 -3 -14 -10 -14
-16 -3 -22 -4 -23 -14 -17 -8 5 -8 11 -1 19 7 8 7 16 1 22 -6 6 -1 10 15 12
14 1 25 -3 25 -9z m121 -3 c5 3 9 0 9 -6 0 -6 5 -8 12 -4 8 5 9 2 5 -10 -4
-10 -7 -24 -7 -31 0 -7 -8 -12 -17 -10 -10 2 -21 4 -25 4 -8 1 -8 50 1 66 2 5
6 4 9 -3 2 -7 8 -10 13 -6z m-41 -21 c0 -8 -4 -15 -10 -15 -5 0 -10 7 -10 15
0 8 5 15 10 15 6 0 10 -7 10 -15z m382 -227 c-4 -4 -8 0 -9 10 -1 9 -4 28 -8
42 -4 15 0 12 10 -9 8 -19 12 -38 7 -43z m5 -40 c-3 -8 -6 -5 -6 6 -1 11 2 17
5 13 3 -3 4 -12 1 -19z m170 -50 c-3 -8 -6 -5 -6 6 -1 11 2 17 5 13 3 -3 4
-12 1 -19z m383 -29 c0 -4 -7 -6 -15 -3 -8 4 -15 10 -15 15 0 4 7 6 15 3 8 -4
15 -10 15 -15z m-400 -14 c0 -7 -6 -18 -13 -24 -11 -8 -16 -5 -25 15 -16 33
-16 32 13 26 14 -2 25 -10 25 -17z m-15 -65 c-10 -11 -20 -18 -23 -15 -3 3 3
14 13 25 10 11 20 18 23 15 3 -3 -3 -14 -13 -25z m412 -5 c0 -8 -7 -17 -14
-19 -8 -3 -11 -1 -8 4 3 6 0 10 -7 11 -7 0 -4 4 7 9 11 5 20 9 21 9 0 1 1 -6
1 -14z m-60 -20 c0 -8 -4 -15 -9 -15 -10 0 -11 14 -1 23 9 10 10 9 10 -8z
m-317 -19 c0 -3 -4 -8 -10 -11 -5 -3 -10 -1 -10 4 0 6 5 11 10 11 6 0 10 -2
10 -4z"/>
<path d="M978 1194 c-3 -5 -2 -18 2 -28 5 -16 8 -17 12 -4 7 16 -7 45 -14 32z"/>
<path d="M990 1131 c0 -5 7 -11 14 -14 10 -4 13 -1 9 9 -6 15 -23 19 -23 5z"/>
<path d="M935 1121 c3 -6 14 -9 25 -8 23 2 17 10 -11 14 -11 2 -18 -1 -14 -6z"/>
<path d="M970 1086 c7 -7 13 -7 20 0 6 6 3 10 -10 10 -13 0 -16 -4 -10 -10z"/>
<path d="M1167 999 c7 -7 15 -10 18 -7 3 3 -2 9 -12 12 -14 6 -15 5 -6 -5z"/>
<path d="M1154 976 c24 -19 32 -20 42 -4 4 7 3 8 -4 4 -6 -4 -22 -2 -34 4 -22
11 -22 10 -4 -4z"/>
<path d="M1181 939 c-18 -11 -31 -23 -27 -26 3 -3 17 2 30 11 28 18 40 21 32
7 -3 -5 1 -11 9 -15 8 -3 17 0 21 6 4 6 3 8 -3 5 -6 -4 -13 0 -16 7 -3 8 -1
17 6 20 8 3 6 5 -3 5 -8 1 -30 -8 -49 -20z"/>
<path d="M1321 714 c0 -11 3 -14 6 -6 3 7 2 16 -1 19 -3 4 -6 -2 -5 -13z"/>
<path d="M1091 414 c0 -11 3 -14 6 -6 3 7 2 16 -1 19 -3 4 -6 -2 -5 -13z"/>
<path d="M1074 355 c-3 -8 -4 -20 -1 -27 3 -7 6 -3 6 10 1 15 5 21 13 16 7 -4
8 -3 4 4 -10 16 -15 15 -22 -3z"/>
<path d="M1165 360 c-3 -5 -1 -10 4 -10 6 0 11 5 11 10 0 6 -2 10 -4 10 -3 0
-8 -4 -11 -10z"/>
<path d="M1052 340 c0 -14 2 -19 5 -12 2 6 2 18 0 25 -3 6 -5 1 -5 -13z"/>
<path d="M1041 294 c0 -11 3 -14 6 -6 3 7 2 16 -1 19 -3 4 -6 -2 -5 -13z"/>
<path d="M740 710 c0 -5 5 -10 10 -10 6 0 10 5 10 10 0 6 -4 10 -10 10 -5 0
-10 -4 -10 -10z"/>
<path d="M1240 245 c-6 -8 -10 -19 -8 -24 1 -6 8 1 15 14 13 28 11 31 -7 10z"/>
<path d="M1190 140 c0 -5 5 -10 11 -10 5 0 7 5 4 10 -3 6 -8 10 -11 10 -2 0
-4 -4 -4 -10z"/>
<path d="M887 1526 c10 -13 21 -22 26 -19 4 2 7 -1 7 -6 0 -14 -57 -14 -65 -1
-10 15 -21 12 -54 -16 -28 -23 -44 -53 -22 -40 5 4 12 0 14 -6 4 -10 8 -9 16
2 6 9 6 16 1 18 -11 4 -1 32 12 32 5 0 7 -4 3 -9 -3 -5 -1 -12 5 -16 5 -3 10
-11 10 -16 0 -6 -4 -7 -10 -4 -5 3 -10 2 -10 -4 0 -6 -10 -15 -21 -22 -16 -8
-20 -8 -14 1 5 8 1 8 -13 -1 -11 -7 -25 -23 -31 -36 -9 -20 -8 -25 12 -33 17
-6 26 -4 39 11 9 11 15 26 12 34 -3 8 6 21 20 31 15 9 25 24 24 33 -2 13 6 16
42 16 39 1 108 24 72 25 -7 0 -11 4 -7 9 3 6 -5 15 -17 22 -21 11 -22 11 -9
-5 13 -16 12 -16 -12 -5 -15 7 -27 16 -27 21 0 4 -5 8 -10 8 -6 0 -3 -11 7
-24z m-37 -36 c0 -5 -2 -10 -4 -10 -3 0 -8 5 -11 10 -3 6 -1 10 4 10 6 0 11
-4 11 -10z m-70 -94 c0 -2 -7 -7 -16 -10 -8 -3 -12 -2 -9 4 6 10 25 14 25 6z"/>
<path d="M916 1443 c-6 -14 -5 -15 5 -6 7 7 10 15 7 18 -3 3 -9 -2 -12 -12z"/>
<path d="M935 1430 c-3 -5 -1 -10 6 -10 7 0 4 -7 -7 -15 -18 -14 -18 -14 3 -9
13 4 21 13 20 25 -1 21 -12 25 -22 9z"/>
<path d="M869 1428 c-8 -19 -4 -88 5 -88 29 0 37 82 9 88 -7 1 -13 1 -14 0z"/>
<path d="M1050 1426 c0 -2 7 -7 16 -10 8 -3 12 -2 9 4 -6 10 -25 14 -25 6z"/>
<path d="M830 1416 c0 -2 8 -10 18 -17 15 -13 16 -12 3 4 -13 16 -21 21 -21
13z"/>
<path d="M734 1331 c3 -5 0 -14 -8 -20 -7 -6 -13 -23 -13 -37 0 -23 1 -24 18
-8 19 17 44 11 33 -8 -4 -7 -2 -8 4 -4 6 4 25 0 43 -9 53 -28 43 -9 -13 23
-38 21 -57 27 -66 19 -9 -7 -11 -6 -6 7 4 10 12 15 19 12 6 -2 18 0 26 6 11 8
10 9 -5 4 -13 -5 -17 -2 -12 9 3 9 0 15 -10 15 -8 0 -13 -4 -10 -9z"/>
<path d="M887 1319 c-21 -12 -13 -29 14 -29 12 0 19 7 19 20 0 22 -7 24 -33 9z"/>
<path d="M868 1233 c7 -3 16 -2 19 1 4 3 -2 6 -13 5 -11 0 -14 -3 -6 -6z"/>
<path d="M26 1122 c-3 -6 -1 -14 5 -17 15 -10 25 3 12 16 -7 7 -13 7 -17 1z"/>
<path d="M13 1033 c10 -3 16 -11 13 -18 -2 -7 2 -16 11 -19 21 -8 26 -2 18 23
-4 15 -14 21 -33 20 -18 -1 -21 -3 -9 -6z"/>
<path d="M70 1024 c0 -8 5 -12 10 -9 6 4 8 11 5 16 -9 14 -15 11 -15 -7z"/>
<path d="M149 1025 c-1 -3 -2 -11 -3 -17 0 -7 -11 -17 -24 -23 -23 -10 -25
-26 -4 -33 7 -2 12 3 12 12 0 9 5 16 10 16 15 0 53 -23 66 -39 18 -23 27 5 12
39 -15 34 -24 38 -31 13 -4 -14 -5 -13 -6 3 -1 19 -29 43 -32 29z"/>
<path d="M490 1020 c0 -5 5 -10 10 -10 6 0 10 5 10 10 0 6 -4 10 -10 10 -5 0
-10 -4 -10 -10z"/>
<path d="M100 1010 c0 -5 4 -10 9 -10 6 0 13 5 16 10 3 6 -1 10 -9 10 -9 0
-16 -4 -16 -10z"/>
<path d="M230 1000 c0 -12 28 -25 36 -17 3 3 -4 10 -15 17 -15 7 -21 7 -21 0z"/>
<path d="M50 854 c0 -8 5 -12 10 -9 6 3 10 10 10 16 0 5 -4 9 -10 9 -5 0 -10
-7 -10 -16z"/>
<path d="M7 521 c-4 -17 -3 -21 5 -13 5 5 8 16 6 23 -3 8 -7 3 -11 -10z"/>
</g>
</svg>
